<svg xmlns="http://www.w3.org/2000/svg" viewBox="0 0 140 100">
  <defs>
    <linearGradient id="coinGold3" x1="0%" y1="0%" x2="100%" y2="100%">
      <stop offset="0%" style="stop-color:#FFD700"/>
      <stop offset="50%" style="stop-color:#FFA500"/>
      <stop offset="100%" style="stop-color:#FF8C00"/>
    </linearGradient>
    <linearGradient id="coinShine3" x1="0%" y1="0%" x2="100%" y2="100%">
      <stop offset="0%" style="stop-color:#FFFFFF;stop-opacity:0.6"/>
      <stop offset="100%" style="stop-color:#FFFFFF;stop-opacity:0"/>
    </linearGradient>
  </defs>
  <!-- Left stack -->
  <g transform="translate(5, 20)">
    <ellipse cx="25" cy="60" rx="20" ry="6" fill="url(#coinGold3)" stroke="#B8860B" stroke-width="1"/>
    <ellipse cx="25" cy="55" rx="20" ry="6" fill="url(#coinGold3)" stroke="#B8860B" stroke-width="1"/>
    <ellipse cx="25" cy="50" rx="20" ry="6" fill="url(#coinGold3)" stroke="#B8860B" stroke-width="1"/>
    <ellipse cx="25" cy="45" rx="20" ry="6" fill="url(#coinGold3)" stroke="#B8860B" stroke-width="1"/>
    <ellipse cx="25" cy="40" rx="20" ry="6" fill="url(#coinGold3)" stroke="#B8860B" stroke-width="1"/>
    <ellipse cx="25" cy="35" rx="20" ry="6" fill="url(#coinGold3)" stroke="#B8860B" stroke-width="1"/>
    <ellipse cx="25" cy="33" rx="15" ry="4" fill="url(#coinShine3)"/>
    <text x="25" y="37" text-anchor="middle" font-size="8" font-weight="bold" fill="#8B4513">UC</text>
  </g>
  <!-- Middle stack (taller) -->
  <g transform="translate(45, 10)">
    <ellipse cx="25" cy="70" rx="22" ry="7" fill="url(#coinGold3)" stroke="#B8860B" stroke-width="1"/>
    <ellipse cx="25" cy="65" rx="22" ry="7" fill="url(#coinGold3)" stroke="#B8860B" stroke-width="1"/>
    <ellipse cx="25" cy="60" rx="22" ry="7" fill="url(#coinGold3)" stroke="#B8860B" stroke-width="1"/>
    <ellipse cx="25" cy="55" rx="22" ry="7" fill="url(#coinGold3)" stroke="#B8860B" stroke-width="1"/>
    <ellipse cx="25" cy="50" rx="22" ry="7" fill="url(#coinGold3)" stroke="#B8860B" stroke-width="1"/>
    <ellipse cx="25" cy="45" rx="22" ry="7" fill="url(#coinGold3)" stroke="#B8860B" stroke-width="1"/>
    <ellipse cx="25" cy="40" rx="22" ry="7" fill="url(#coinGold3)" stroke="#B8860B" stroke-width="1"/>
    <ellipse cx="25" cy="38" rx="17" ry="5" fill="url(#coinShine3)"/>
    <text x="25" y="42" text-anchor="middle" font-size="9" font-weight="bold" fill="#8B4513">UC</text>
  </g>
  <!-- Right stack -->
  <g transform="translate(90, 25)">
    <ellipse cx="25" cy="55" rx="20" ry="6" fill="url(#coinGold3)" stroke="#B8860B" stroke-width="1"/>
    <ellipse cx="25" cy="50" rx="20" ry="6" fill="url(#coinGold3)" stroke="#B8860B" stroke-width="1"/>
    <ellipse cx="25" cy="45" rx="20" ry="6" fill="url(#coinGold3)" stroke="#B8860B" stroke-width="1"/>
    <ellipse cx="25" cy="40" rx="20" ry="6" fill="url(#coinGold3)" stroke="#B8860B" stroke-width="1"/>
    <ellipse cx="25" cy="35" rx="20" ry="6" fill="url(#coinGold3)" stroke="#B8860B" stroke-width="1"/>
    <ellipse cx="25" cy="33" rx="15" ry="4" fill="url(#coinShine3)"/>
    <text x="25" y="37" text-anchor="middle" font-size="8" font-weight="bold" fill="#8B4513">UC</text>
  </g>
</svg>
