<svg xmlns="http://www.w3.org/2000/svg" viewBox="0 0 120 90">
  <defs>
    <linearGradient id="coinGold2" x1="0%" y1="0%" x2="100%" y2="100%">
      <stop offset="0%" style="stop-color:#FFD700"/>
      <stop offset="50%" style="stop-color:#FFA500"/>
      <stop offset="100%" style="stop-color:#FF8C00"/>
    </linearGradient>
    <linearGradient id="coinShine2" x1="0%" y1="0%" x2="100%" y2="100%">
      <stop offset="0%" style="stop-color:#FFFFFF;stop-opacity:0.6"/>
      <stop offset="100%" style="stop-color:#FFFFFF;stop-opacity:0"/>
    </linearGradient>
  </defs>
  <!-- Left stack -->
  <g transform="translate(10, 25)">
    <ellipse cx="25" cy="50" rx="22" ry="7" fill="url(#coinGold2)" stroke="#B8860B" stroke-width="1"/>
    <ellipse cx="25" cy="45" rx="22" ry="7" fill="url(#coinGold2)" stroke="#B8860B" stroke-width="1"/>
    <ellipse cx="25" cy="40" rx="22" ry="7" fill="url(#coinGold2)" stroke="#B8860B" stroke-width="1"/>
    <ellipse cx="25" cy="35" rx="22" ry="7" fill="url(#coinGold2)" stroke="#B8860B" stroke-width="1"/>
    <ellipse cx="25" cy="30" rx="22" ry="7" fill="url(#coinGold2)" stroke="#B8860B" stroke-width="1"/>
    <ellipse cx="25" cy="28" rx="17" ry="5" fill="url(#coinShine2)"/>
    <text x="25" y="33" text-anchor="middle" font-size="9" font-weight="bold" fill="#8B4513">UC</text>
  </g>
  <!-- Right stack -->
  <g transform="translate(55, 30)">
    <ellipse cx="25" cy="50" rx="22" ry="7" fill="url(#coinGold2)" stroke="#B8860B" stroke-width="1"/>
    <ellipse cx="25" cy="45" rx="22" ry="7" fill="url(#coinGold2)" stroke="#B8860B" stroke-width="1"/>
    <ellipse cx="25" cy="40" rx="22" ry="7" fill="url(#coinGold2)" stroke="#B8860B" stroke-width="1"/>
    <ellipse cx="25" cy="35" rx="22" ry="7" fill="url(#coinGold2)" stroke="#B8860B" stroke-width="1"/>
    <ellipse cx="25" cy="33" rx="17" ry="5" fill="url(#coinShine2)"/>
    <text x="25" y="38" text-anchor="middle" font-size="9" font-weight="bold" fill="#8B4513">UC</text>
  </g>
</svg>
